<svg width="32" height="32" viewBox="0 0 32 32" fill="none" xmlns="http://www.w3.org/2000/svg">
<rect width="32" height="32" rx="16" fill="#D0EFEA"/>
<mask id="mask0_48_4969" style="mask-type:alpha" maskUnits="userSpaceOnUse" x="6" y="6" width="20" height="20">
<rect x="6" y="6" width="20" height="20" fill="#D9D9D9"/>
</mask>
<g mask="url(#mask0_48_4969)">
<path d="M20.1667 24.333C19.0139 24.333 18.0312 23.9268 17.2188 23.1143C16.4063 22.3018 16 21.3191 16 20.1663C16 19.0136 16.4063 18.0309 17.2188 17.2184C18.0312 16.4059 19.0139 15.9997 20.1667 15.9997C21.3194 15.9997 22.3021 16.4059 23.1146 17.2184C23.9271 18.0309 24.3333 19.0136 24.3333 20.1663C24.3333 21.3191 23.9271 22.3018 23.1146 23.1143C22.3021 23.9268 21.3194 24.333 20.1667 24.333ZM21.5625 22.1455L22.1458 21.5622L20.5833 19.9997V17.6663H19.75V20.333L21.5625 22.1455ZM10.1667 23.4997C9.70833 23.4997 9.31597 23.3365 8.98958 23.0101C8.66319 22.6837 8.5 22.2913 8.5 21.833V10.1663C8.5 9.70801 8.66319 9.31565 8.98958 8.98926C9.31597 8.66287 9.70833 8.49967 10.1667 8.49967H13.6458C13.7986 8.01356 14.0972 7.61426 14.5417 7.30176C14.9861 6.98926 15.4722 6.83301 16 6.83301C16.5556 6.83301 17.0521 6.98926 17.4896 7.30176C17.9271 7.61426 18.2222 8.01356 18.375 8.49967H21.8333C22.2917 8.49967 22.684 8.66287 23.0104 8.98926C23.3368 9.31565 23.5 9.70801 23.5 10.1663V15.3747C23.25 15.1941 22.9861 15.0413 22.7083 14.9163C22.4306 14.7913 22.1389 14.6802 21.8333 14.583V10.1663H20.1667V12.6663H11.8333V10.1663H10.1667V21.833H14.5833C14.6806 22.1386 14.7917 22.4302 14.9167 22.708C15.0417 22.9858 15.1944 23.2497 15.375 23.4997H10.1667ZM16 10.1663C16.2361 10.1663 16.434 10.0865 16.5938 9.92676C16.7535 9.76704 16.8333 9.56912 16.8333 9.33301C16.8333 9.0969 16.7535 8.89898 16.5938 8.73926C16.434 8.57954 16.2361 8.49967 16 8.49967C15.7639 8.49967 15.566 8.57954 15.4062 8.73926C15.2465 8.89898 15.1667 9.0969 15.1667 9.33301C15.1667 9.56912 15.2465 9.76704 15.4062 9.92676C15.566 10.0865 15.7639 10.1663 16 10.1663Z" fill="#00644B"/>
</g>
</svg>
