<svg width="32" height="32" viewBox="0 0 32 32" fill="none" xmlns="http://www.w3.org/2000/svg">
<rect width="32" height="32" rx="16" fill="#EEE6F8"/>
<mask id="mask0_48_4989" style="mask-type:alpha" maskUnits="userSpaceOnUse" x="6" y="6" width="20" height="20">
<rect x="6" y="6" width="20" height="20" fill="#D9D9D9"/>
</mask>
<g mask="url(#mask0_48_4989)">
<path d="M22.2917 16.3333H12.1667V14.6667H22.2917L21 13.375L22.1667 12.1667L25.5 15.5L22.1667 18.8333L21 17.625L22.2917 16.3333ZM18 13V9.66667H9.66667V21.3333H18V18H19.6667V21.3333C19.6667 21.7917 19.5035 22.184 19.1771 22.5104C18.8507 22.8368 18.4583 23 18 23H9.66667C9.20833 23 8.81597 22.8368 8.48958 22.5104C8.16319 22.184 8 21.7917 8 21.3333V9.66667C8 9.20833 8.16319 8.81597 8.48958 8.48958C8.81597 8.16319 9.20833 8 9.66667 8H18C18.4583 8 18.8507 8.16319 19.1771 8.48958C19.5035 8.81597 19.6667 9.20833 19.6667 9.66667V13H18Z" fill="#5C3691"/>
</g>
</svg>
