<svg width="32" height="32" viewBox="0 0 32 32" fill="none" xmlns="http://www.w3.org/2000/svg">
<rect width="32" height="32" rx="16" fill="#EEE6F8"/>
<mask id="mask0_48_5069" style="mask-type:alpha" maskUnits="userSpaceOnUse" x="6" y="6" width="20" height="20">
<rect x="6" y="6" width="20" height="20" fill="#D9D9D9"/>
</mask>
<g mask="url(#mask0_48_5069)">
<path d="M11.7083 18.4997C12.1389 18.4997 12.5243 18.3747 12.8646 18.1247C13.2048 17.8747 13.4444 17.5483 13.5833 17.1455L13.8958 16.1872C14.118 15.5205 14.0625 14.9059 13.7291 14.3434C13.3958 13.7809 12.9166 13.4997 12.2916 13.4997H9.35415L9.74998 16.7705C9.81942 17.2566 10.0382 17.6663 10.4062 17.9997C10.7743 18.333 11.2083 18.4997 11.7083 18.4997ZM20.2916 18.4997C20.7916 18.4997 21.2257 18.333 21.5937 17.9997C21.9618 17.6663 22.1805 17.2566 22.25 16.7705L22.6458 13.4997H19.7291C19.1041 13.4997 18.625 13.7844 18.2916 14.3538C17.9583 14.9233 17.9028 15.5413 18.125 16.208L18.4166 17.1455C18.5555 17.5483 18.7951 17.8747 19.1354 18.1247C19.4757 18.3747 19.8611 18.4997 20.2916 18.4997ZM11.7083 20.1663C10.7916 20.1663 9.98956 19.8643 9.30206 19.2601C8.61456 18.6559 8.21526 17.8955 8.10415 16.9788L7.66665 13.4997H6.83331V11.833H12.2916C12.9028 11.833 13.4618 11.9823 13.9687 12.2809C14.4757 12.5795 14.875 12.9858 15.1666 13.4997H16.8541C17.1458 12.9858 17.5451 12.5795 18.0521 12.2809C18.559 11.9823 19.118 11.833 19.7291 11.833H25.1666V13.4997H24.3333L23.8958 16.9788C23.7847 17.8955 23.3854 18.6559 22.6979 19.2601C22.0104 19.8643 21.2083 20.1663 20.2916 20.1663C19.5 20.1663 18.7882 19.9406 18.1562 19.4893C17.5243 19.0379 17.0833 18.4372 16.8333 17.6872L16.5208 16.7497C16.493 16.6525 16.4653 16.5518 16.4375 16.4476C16.4097 16.3434 16.3819 16.1941 16.3541 15.9997H15.6458C15.618 16.1663 15.5903 16.3018 15.5625 16.4059C15.5347 16.5101 15.5069 16.6108 15.4791 16.708L15.1666 17.6663C14.9166 18.4163 14.4757 19.0205 13.8437 19.4788C13.2118 19.9372 12.5 20.1663 11.7083 20.1663Z" fill="#5C3691"/>
</g>
</svg>
