<svg width="32" height="32" viewBox="0 0 32 32" fill="none" xmlns="http://www.w3.org/2000/svg">
<rect width="32" height="32" rx="16" fill="#FFE9CC"/>
<mask id="mask0_48_4979" style="mask-type:alpha" maskUnits="userSpaceOnUse" x="6" y="6" width="20" height="20">
<rect x="6" y="6" width="20" height="20" fill="#D9D9D9"/>
</mask>
<g mask="url(#mask0_48_4979)">
<path d="M20.1667 15.1667V12.6667H17.6667V11H20.1667V8.5H21.8333V11H24.3333V12.6667H21.8333V15.1667H20.1667ZM15.1667 21.8333C15.9167 21.8333 16.6146 21.684 17.2604 21.3854C17.9062 21.0868 18.4583 20.6736 18.9167 20.1458C17.1667 20.0347 15.6875 19.3438 14.4792 18.0729C13.2708 16.8021 12.6667 15.2778 12.6667 13.5C12.6667 13.3194 12.6736 13.1424 12.6875 12.9688C12.7014 12.7951 12.7222 12.625 12.75 12.4583C11.9722 12.8889 11.3472 13.4896 10.875 14.2604C10.4028 15.0312 10.1667 15.8889 10.1667 16.8333C10.1667 18.2222 10.6528 19.4028 11.625 20.375C12.5972 21.3472 13.7778 21.8333 15.1667 21.8333ZM15.1667 23.5C13.3056 23.5 11.7292 22.8542 10.4375 21.5625C9.14583 20.2708 8.5 18.6944 8.5 16.8333C8.5 14.9722 9.14583 13.3958 10.4375 12.1042C11.7292 10.8125 13.3056 10.1667 15.1667 10.1667C15.2361 10.1667 15.3056 10.1701 15.375 10.1771C15.4444 10.184 15.5139 10.1875 15.5833 10.1875C15.1806 10.6319 14.8715 11.1354 14.6562 11.6979C14.441 12.2604 14.3333 12.8611 14.3333 13.5C14.3333 14.8889 14.8194 16.0694 15.7917 17.0417C16.7639 18.0139 17.9444 18.5 19.3333 18.5C19.7778 18.5 20.2014 18.4444 20.6042 18.3333C21.0069 18.2222 21.3889 18.0694 21.75 17.875C21.5 19.4722 20.7604 20.809 19.5312 21.8854C18.3021 22.9618 16.8472 23.5 15.1667 23.5Z" fill="#E67700"/>
</g>
</svg>
