<svg width="32" height="32" viewBox="0 0 32 32" fill="none" xmlns="http://www.w3.org/2000/svg">
<rect width="32" height="32" rx="16" fill="#D0EFEA"/>
<mask id="mask0_48_5049" style="mask-type:alpha" maskUnits="userSpaceOnUse" x="6" y="6" width="20" height="20">
<rect x="6" y="6" width="20" height="20" fill="#D9D9D9"/>
</mask>
<g mask="url(#mask0_48_5049)">
<path d="M14.75 20.1667H17.25V17.25H20.1667V14.75H17.25V11.8333H14.75V14.75H11.8333V17.25H14.75V20.1667ZM10.1667 23.5C9.70833 23.5 9.31597 23.3368 8.98958 23.0104C8.66319 22.684 8.5 22.2917 8.5 21.8333V10.1667C8.5 9.70833 8.66319 9.31597 8.98958 8.98958C9.31597 8.66319 9.70833 8.5 10.1667 8.5H21.8333C22.2917 8.5 22.684 8.66319 23.0104 8.98958C23.3368 9.31597 23.5 9.70833 23.5 10.1667V21.8333C23.5 22.2917 23.3368 22.684 23.0104 23.0104C22.684 23.3368 22.2917 23.5 21.8333 23.5H10.1667ZM10.1667 21.8333H21.8333V10.1667H10.1667V21.8333Z" fill="#00644B"/>
</g>
</svg>
