<svg width="32" height="32" viewBox="0 0 32 32" fill="none" xmlns="http://www.w3.org/2000/svg">
<rect width="32" height="32" rx="16" fill="#FFE9CC"/>
<mask id="mask0_48_5059" style="mask-type:alpha" maskUnits="userSpaceOnUse" x="6" y="6" width="20" height="20">
<rect x="6" y="6" width="20" height="20" fill="#D9D9D9"/>
</mask>
<g mask="url(#mask0_48_5059)">
<path d="M21.7084 24.3122C21.5972 24.3122 21.4931 24.2948 21.3959 24.2601C21.2986 24.2254 21.2084 24.1663 21.125 24.083L16.875 19.833C16.7917 19.7497 16.7327 19.6594 16.6979 19.5622C16.6632 19.465 16.6459 19.3608 16.6459 19.2497C16.6459 19.1386 16.6632 19.0344 16.6979 18.9372C16.7327 18.84 16.7917 18.7497 16.875 18.6663L18.6459 16.8955C18.7292 16.8122 18.8195 16.7531 18.9167 16.7184C19.0139 16.6837 19.1181 16.6663 19.2292 16.6663C19.3403 16.6663 19.4445 16.6837 19.5417 16.7184C19.6389 16.7531 19.7292 16.8122 19.8125 16.8955L24.0625 21.1455C24.1459 21.2288 24.2049 21.3191 24.2396 21.4163C24.2743 21.5136 24.2917 21.6177 24.2917 21.7288C24.2917 21.84 24.2743 21.9441 24.2396 22.0413C24.2049 22.1386 24.1459 22.2288 24.0625 22.3122L22.2917 24.083C22.2084 24.1663 22.1181 24.2254 22.0209 24.2601C21.9236 24.2948 21.8195 24.3122 21.7084 24.3122ZM21.7084 22.333L22.3125 21.7288L19.25 18.6663L18.6459 19.2705L21.7084 22.333ZM10.2709 24.333C10.1597 24.333 10.0521 24.3122 9.94794 24.2705C9.84377 24.2288 9.75002 24.1663 9.66669 24.083L7.91669 22.333C7.83335 22.2497 7.77085 22.1559 7.72919 22.0518C7.68752 21.9476 7.66669 21.84 7.66669 21.7288C7.66669 21.6177 7.68752 21.5136 7.72919 21.4163C7.77085 21.3191 7.83335 21.2288 7.91669 21.1455L12.3334 16.7288H14.1042L14.8125 16.0205L11.375 12.583H10.1875L7.66669 10.0622L10.0209 7.70801L12.5417 10.2288V11.4163L15.9792 14.8538L18.3959 12.4372L17.5 11.5413L18.6667 10.3747H16.3125L15.7292 9.79134L18.6875 6.83301L19.2709 7.41634V9.77051L20.4375 8.60384L23.3959 11.5622C23.632 11.7983 23.8125 12.0656 23.9375 12.3643C24.0625 12.6629 24.125 12.9788 24.125 13.3122C24.125 13.6455 24.0625 13.965 23.9375 14.2705C23.8125 14.5761 23.632 14.8469 23.3959 15.083L21.625 13.3122L20.4584 14.4788L19.5834 13.6038L15.2709 17.9163V19.6663L10.8542 24.083C10.7709 24.1663 10.6806 24.2288 10.5834 24.2705C10.4861 24.3122 10.382 24.333 10.2709 24.333ZM10.2709 22.333L13.8125 18.7913V18.1872H13.2084L9.66669 21.7288L10.2709 22.333ZM10.2709 22.333L9.66669 21.7288L9.97919 22.0205L10.2709 22.333Z" fill="#E67700"/>
</g>
</svg>
