<svg width="32" height="32" viewBox="0 0 32 32" fill="none" xmlns="http://www.w3.org/2000/svg">
<rect width="32" height="32" rx="16" fill="#D0EFEA"/>
<mask id="mask0_48_5079" style="mask-type:alpha" maskUnits="userSpaceOnUse" x="6" y="6" width="20" height="20">
<rect x="6" y="6" width="20" height="20" fill="#D9D9D9"/>
</mask>
<g mask="url(#mask0_48_5079)">
<path d="M8.18748 21.1462L6.83331 20.167L11 13.5003L13.5 16.417L16.8333 11.0003L19.1041 14.3962C18.7847 14.41 18.4826 14.4482 18.1979 14.5107C17.9132 14.5732 17.6319 14.66 17.3541 14.7712L16.8958 14.0837L13.7291 19.2295L11.2083 16.292L8.18748 21.1462ZM23.9791 25.167L21.375 22.5628C21.0972 22.7573 20.7882 22.9031 20.4479 23.0003C20.1076 23.0975 19.7569 23.1462 19.3958 23.1462C18.3541 23.1462 17.4687 22.7816 16.7396 22.0524C16.0104 21.3232 15.6458 20.4378 15.6458 19.3962C15.6458 18.3545 16.0104 17.4691 16.7396 16.7399C17.4687 16.0107 18.3541 15.6462 19.3958 15.6462C20.4375 15.6462 21.3229 16.0107 22.0521 16.7399C22.7812 17.4691 23.1458 18.3545 23.1458 19.3962C23.1458 19.7573 23.0972 20.108 23 20.4482C22.9028 20.7885 22.7569 21.1045 22.5625 21.3962L25.1666 23.9795L23.9791 25.167ZM19.3958 21.4795C19.9791 21.4795 20.4722 21.2781 20.875 20.8753C21.2778 20.4725 21.4791 19.9795 21.4791 19.3962C21.4791 18.8128 21.2778 18.3198 20.875 17.917C20.4722 17.5142 19.9791 17.3128 19.3958 17.3128C18.8125 17.3128 18.3194 17.5142 17.9166 17.917C17.5139 18.3198 17.3125 18.8128 17.3125 19.3962C17.3125 19.9795 17.5139 20.4725 17.9166 20.8753C18.3194 21.2781 18.8125 21.4795 19.3958 21.4795ZM21.25 14.8128C20.9861 14.7017 20.7118 14.6114 20.4271 14.542C20.1423 14.4725 19.8472 14.4309 19.5416 14.417L23.8125 7.66699L25.1666 8.64616L21.25 14.8128Z" fill="#00644B"/>
</g>
</svg>
